<svg xmlns="http://www.w3.org/2000/svg" width="960" height="440" viewBox="0 0 960 440" role="img" aria-labelledby="title desc">
  <title id="title">PiTTy terminal logo preview</title>
  <desc id="desc">A terminal window showing the compact half-block rendering of the bracket-pi logo.</desc>
  <rect width="960" height="440" rx="28" fill="#09090B"/>
  <rect x="1" y="1" width="958" height="438" rx="27" fill="none" stroke="#27272A" stroke-width="2"/>
  <circle cx="42" cy="38" r="8" fill="#F87171"/>
  <circle cx="68" cy="38" r="8" fill="#FACC15"/>
  <circle cx="94" cy="38" r="8" fill="#4ADE80"/>
  <text x="130" y="47" fill="#71717A" font-family="ui-monospace, SFMono-Regular, Menlo, Consolas, monospace" font-size="20">pitty — empty chat</text>
  <g fill="#60A5FA">
    <rect x="267" y="105" width="30" height="5" rx="1"/>
    <rect x="662" y="105" width="30" height="5" rx="1"/>
    <rect x="267" y="110" width="30" height="5" rx="1"/>
    <rect x="662" y="110" width="30" height="5" rx="1"/>
    <rect x="267" y="115" width="15" height="5" rx="1"/>
    <rect x="677" y="115" width="15" height="5" rx="1"/>
    <rect x="267" y="120" width="15" height="5" rx="1"/>
    <rect x="677" y="120" width="15" height="5" rx="1"/>
    <rect x="267" y="125" width="15" height="5" rx="1"/>
    <rect x="317" y="125" width="10" height="5" rx="1"/>
    <rect x="632" y="125" width="5" height="5" rx="1"/>
    <rect x="677" y="125" width="15" height="5" rx="1"/>
    <rect x="267" y="130" width="15" height="5" rx="1"/>
    <rect x="317" y="130" width="20" height="5" rx="1"/>
    <rect x="447" y="130" width="65" height="5" rx="1"/>
    <rect x="617" y="130" width="20" height="5" rx="1"/>
    <rect x="677" y="130" width="15" height="5" rx="1"/>
    <rect x="267" y="135" width="15" height="5" rx="1"/>
    <rect x="317" y="135" width="35" height="5" rx="1"/>
    <rect x="447" y="135" width="65" height="5" rx="1"/>
    <rect x="602" y="135" width="35" height="5" rx="1"/>
    <rect x="677" y="135" width="15" height="5" rx="1"/>
    <rect x="267" y="140" width="15" height="5" rx="1"/>
    <rect x="327" y="140" width="40" height="5" rx="1"/>
    <rect x="452" y="140" width="20" height="5" rx="1"/>
    <rect x="482" y="140" width="20" height="5" rx="1"/>
    <rect x="592" y="140" width="35" height="5" rx="1"/>
    <rect x="677" y="140" width="15" height="5" rx="1"/>
    <rect x="267" y="145" width="15" height="5" rx="1"/>
    <rect x="342" y="145" width="30" height="5" rx="1"/>
    <rect x="457" y="145" width="15" height="5" rx="1"/>
    <rect x="487" y="145" width="15" height="5" rx="1"/>
    <rect x="582" y="145" width="30" height="5" rx="1"/>
    <rect x="677" y="145" width="15" height="5" rx="1"/>
    <rect x="267" y="150" width="15" height="5" rx="1"/>
    <rect x="357" y="150" width="15" height="5" rx="1"/>
    <rect x="457" y="150" width="15" height="5" rx="1"/>
    <rect x="487" y="150" width="15" height="5" rx="1"/>
    <rect x="582" y="150" width="20" height="5" rx="1"/>
    <rect x="677" y="150" width="15" height="5" rx="1"/>
    <rect x="267" y="155" width="15" height="5" rx="1"/>
    <rect x="342" y="155" width="30" height="5" rx="1"/>
    <rect x="457" y="155" width="15" height="5" rx="1"/>
    <rect x="487" y="155" width="15" height="5" rx="1"/>
    <rect x="582" y="155" width="30" height="5" rx="1"/>
    <rect x="677" y="155" width="15" height="5" rx="1"/>
    <rect x="267" y="160" width="15" height="5" rx="1"/>
    <rect x="327" y="160" width="40" height="5" rx="1"/>
    <rect x="457" y="160" width="15" height="5" rx="1"/>
    <rect x="487" y="160" width="15" height="5" rx="1"/>
    <rect x="592" y="160" width="35" height="5" rx="1"/>
    <rect x="677" y="160" width="15" height="5" rx="1"/>
    <rect x="267" y="165" width="15" height="5" rx="1"/>
    <rect x="317" y="165" width="35" height="5" rx="1"/>
    <rect x="457" y="165" width="15" height="5" rx="1"/>
    <rect x="487" y="165" width="15" height="5" rx="1"/>
    <rect x="602" y="165" width="35" height="5" rx="1"/>
    <rect x="677" y="165" width="15" height="5" rx="1"/>
    <rect x="267" y="170" width="15" height="5" rx="1"/>
    <rect x="317" y="170" width="20" height="5" rx="1"/>
    <rect x="457" y="170" width="15" height="5" rx="1"/>
    <rect x="487" y="170" width="15" height="5" rx="1"/>
    <rect x="617" y="170" width="20" height="5" rx="1"/>
    <rect x="677" y="170" width="15" height="5" rx="1"/>
    <rect x="267" y="175" width="15" height="5" rx="1"/>
    <rect x="317" y="175" width="10" height="5" rx="1"/>
    <rect x="457" y="175" width="15" height="5" rx="1"/>
    <rect x="487" y="175" width="15" height="5" rx="1"/>
    <rect x="632" y="175" width="5" height="5" rx="1"/>
    <rect x="677" y="175" width="15" height="5" rx="1"/>
    <rect x="267" y="180" width="15" height="5" rx="1"/>
    <rect x="457" y="180" width="15" height="5" rx="1"/>
    <rect x="487" y="180" width="25" height="5" rx="1"/>
    <rect x="677" y="180" width="15" height="5" rx="1"/>
    <rect x="267" y="185" width="15" height="5" rx="1"/>
    <rect x="457" y="185" width="15" height="5" rx="1"/>
    <rect x="487" y="185" width="25" height="5" rx="1"/>
    <rect x="677" y="185" width="15" height="5" rx="1"/>
    <rect x="267" y="190" width="15" height="5" rx="1"/>
    <rect x="677" y="190" width="15" height="5" rx="1"/>
    <rect x="267" y="195" width="30" height="5" rx="1"/>
    <rect x="662" y="195" width="30" height="5" rx="1"/>
    <rect x="267" y="200" width="30" height="5" rx="1"/>
    <rect x="662" y="200" width="30" height="5" rx="1"/>
  </g>
  <text x="480" y="305" text-anchor="middle" fill="#FAFAFA" font-family="ui-monospace, SFMono-Regular, Menlo, Consolas, monospace" font-size="46" font-weight="700">PiTTy</text>
  <text x="480" y="347" text-anchor="middle" fill="#60A5FA" font-family="ui-monospace, SFMono-Regular, Menlo, Consolas, monospace" font-size="24" font-weight="700">[&gt; π &lt;]</text>
  <text x="480" y="386" text-anchor="middle" fill="#71717A" font-family="ui-monospace, SFMono-Regular, Menlo, Consolas, monospace" font-size="20">terminal-native frontend for Pi</text>
</svg>
