<svg xmlns="http://www.w3.org/2000/svg" width="360" height="300" viewBox="0 0 360 300" fill="none" role="img" aria-labelledby="title desc">
  <title id="title">PiTTy terminal PTY Tail mark for dark backgrounds</title>
  <desc id="desc">Two square endpoints joined by double terminal lines and dotted curves forming a flowing P-shaped tail.</desc>
  <g stroke="#60A5FA" stroke-width="5" stroke-linecap="round" stroke-linejoin="round">
    <path d="M66 46H214"/>
    <path d="M66 54H210"/>
    <path d="M214 46C245 46 256 65 256 91C256 118 246 136 214 136" stroke-dasharray="0.1 10"/>
    <path d="M210 54C234 54 246 69 246 91C246 113 236 128 210 128" stroke-dasharray="0.1 10"/>
    <path d="M214 136H122"/>
    <path d="M210 128H122"/>
    <path d="M122 128C92 128 84 143 88 157C93 174 119 176 127 191C135 207 127 224 105 230" stroke-dasharray="0.1 10"/>
    <path d="M122 136C101 136 96 146 99 155C103 165 124 170 134 186C145 203 139 225 112 238" stroke-dasharray="0.1 10"/>
    <path d="M112 238H66"/>
    <path d="M105 230H66"/>
  </g>
  <rect x="34" y="31" width="32" height="32" rx="2" fill="#60A5FA"/>
  <rect x="34" y="218" width="32" height="32" rx="2" fill="#60A5FA"/>
</svg>
